<?xml version="1.0" encoding="UTF-8"?>
<svg width="262px" height="169px" viewBox="0 0 262 169" version="1.1" xmlns="http://www.w3.org/2000/svg" xmlns:xlink="http://www.w3.org/1999/xlink">
    <!-- Generator: Sketch 54.1 (76490) - https://sketchapp.com -->
    <title>vix-logo</title>
    <desc>Created with Sketch.</desc>
    <defs>
        <linearGradient x1="43.8651379%" y1="39.5127907%" x2="58.0660898%" y2="60.4976744%" id="linearGradient-1">
            <stop stop-color="#6BC0AD" offset="0%"></stop>
            <stop stop-color="#68BBA8" offset="18.9%"></stop>
            <stop stop-color="#61AD9C" offset="50.3%"></stop>
            <stop stop-color="#549687" offset="90.1%"></stop>
            <stop stop-color="#519082" offset="99.4%"></stop>
        </linearGradient>
        <linearGradient x1="-8.39433962%" y1="16.8778863%" x2="108.642453%" y2="82.6000071%" id="linearGradient-2">
            <stop stop-color="#6BC0AD" offset="22.3%"></stop>
            <stop stop-color="#68BBA8" offset="28%"></stop>
            <stop stop-color="#61AD9C" offset="37.3%"></stop>
            <stop stop-color="#549687" offset="49.2%"></stop>
            <stop stop-color="#519082" offset="51.9%"></stop>
            <stop stop-color="#6BC0AD" offset="78%"></stop>
        </linearGradient>
        <linearGradient x1="50.005102%" y1="-0.0240963855%" x2="50.005102%" y2="99.9242685%" id="linearGradient-3">
            <stop stop-color="#519082" stop-opacity="0.7" offset="0%"></stop>
            <stop stop-color="#6BC0AD" offset="45.4%"></stop>
        </linearGradient>
    </defs>
    <g id="Page-1" stroke="none" stroke-width="1" fill="none" fill-rule="evenodd">
        <g id="vix-logo" transform="translate(-52.000000, -65.000000)">
            <g id="Laag_7" transform="translate(38.000000, 0.000000)">
                <polygon id="XMLID_2_" points="0 0 300 0 300 300 0 300"></polygon>
            </g>
            <g id="Laag_4" transform="translate(52.000000, 35.000000)">
                <polygon id="Path" fill="#6BC0AD" fill-rule="nonzero" points="12.8 73.5 50.5 176 87.9 176 125.5 73.5 86.5 73.5 70.2 124.7 52.8 73.5"></polygon>
                <path d="M18.5,88.9 C17.6,86.8 16.1,84.1 13.5,81.6 C11.4,79.6 9.4,78.5 8.3,77.8 C6.1,76.6 4.2,75.9 2.7,75.4 C2,74.7 1.3,74.1 0.7,73.4 L13.9,73.4 C15.8,76.5 17.7,80.7 18.4,86 C18.4,87 18.5,88 18.5,88.9 L18.5,88.9 Z M85.4,73.5 L69.1,121.4 L50.5,176 L88.3,176 L125.5,73.5 L85.4,73.5 Z" id="Shape" fill="#6BC0AD" fill-rule="nonzero"></path>
                <polygon id="Path" fill="url(#linearGradient-1)" fill-rule="nonzero" points="35.5 135.2 50.5 176 69.1 121.4 58.4 90"></polygon>
                <circle id="Oval" fill="#6BC0AD" fill-rule="nonzero" cx="158.8" cy="47.6" r="17"></circle>
                <polygon id="Path" fill="#6BC0AD" fill-rule="nonzero" points="137.7 73.5 121.4 121.4 102.7 176 140.6 176 170.4 93.9 176.6 76.8 177.8 73.5"></polygon>
                <path d="M155.6,73.5 C155.6,73.5 160.5,83.9 169.7,99.3 C172.3,103.7 174.3,106.9 175,108 C178.5,113.5 182,118.6 186.8,125.4 C195.6,137.7 204.4,149.1 209.4,155.5 C211.2,157.7 213,160.3 214.9,163.2 C217.7,167.5 220.7,172.8 221.3,176.6 L261.6,176.6 C261.6,176.6 247.4,142.1 232,125.1 C232,125.1 225.6,117.7 217.9,107.6 C214.8,103.5 211.9,99.6 208.5,94.4 C205.2,89.4 201.1,82.4 196.8,73.6 C183.1,73.5 169.4,73.5 155.6,73.5 L155.6,73.5 Z" id="Path" fill="url(#linearGradient-2)" fill-rule="nonzero"></path>
                <path d="M261.6,73.5 C261.6,73.5 242,114.9 207.8,155.4 C207.8,155.4 197.2,168.9 195.9,176.5 L155.6,176.5 C155.6,176.5 169.8,142 185.2,125 C185.2,125 185.4,124.8 185.7,124.4 C189.4,120.1 211.7,93.7 220.3,73.5 L261.6,73.5 Z" id="Path" fill="#6BC0AD" fill-rule="nonzero"></path>
                <polyline id="Path" fill="url(#linearGradient-3)" fill-rule="nonzero" points="129.3 97.9 168.9 97.9 147.9 156 110.1 154.3 129.3 97.9"></polyline>
                <polygon id="Path" fill="#6BC0AD" fill-rule="nonzero" points="104.9 73.5 174.3 73.5 174.3 106.4 104.9 106.4"></polygon>
                <g id="Laag_3" transform="translate(41.000000, 0.000000)"></g>
            </g>
            <g id="Laag_1" transform="translate(0.000000, 134.000000)"></g>
            <path d="M102.4,221.8 L103,221.8 L103.1,223.6 C104.2,222.4 105.5,221.5 106.8,221.5 C108.7,221.5 109.6,222.5 110,223.9 C111.4,222.4 112.7,221.5 114,221.5 C116.3,221.5 117.5,222.9 117.5,225.9 L117.5,233.4 L116.8,233.4 L116.8,226 C116.8,223.4 115.9,222.2 114,222.2 C112.8,222.2 111.7,223 110.3,224.5 L110.3,233.4 L109.6,233.4 L109.6,226 C109.6,223.4 108.7,222.2 106.8,222.2 C105.7,222.2 104.5,223 103.1,224.5 L103.1,233.4 L102.4,233.4 L102.4,221.8 L102.4,221.8 Z M121.3,229.3 L121.3,221.8 L122,221.8 L122,229.2 C122,231.8 122.8,233 124.8,233 C126.3,233 127.3,232.2 128.8,230.5 L128.8,221.8 L129.5,221.8 L129.5,233.4 L128.9,233.4 L128.8,231.4 C127.6,232.8 126.4,233.7 124.8,233.7 C122.4,233.7 121.3,232.3 121.3,229.3 L121.3,229.3 Z M133.7,221.8 L134.3,221.8 L134.4,223.6 C135.6,222.4 136.8,221.5 138.4,221.5 C140.8,221.5 141.9,222.9 141.9,225.9 L141.9,233.4 L141.2,233.4 L141.2,226 C141.2,223.4 140.4,222.2 138.4,222.2 C136.9,222.2 135.9,223 134.4,224.5 L134.4,233.4 L133.7,233.4 L133.7,221.8 L133.7,221.8 Z M146.2,230.3 L146.2,222.4 L144.4,222.4 L144.4,221.8 L146.2,221.7 L146.3,218.3 L146.9,218.3 L146.9,221.7 L150.4,221.7 L150.4,222.4 L146.9,222.4 L146.9,230.4 C146.9,231.9 147.2,233 148.9,233 C149.3,233 150,232.8 150.4,232.6 L150.6,233.2 C149.9,233.4 149.2,233.6 148.8,233.6 C146.8,233.7 146.2,232.3 146.2,230.3 L146.2,230.3 Z M157.2,221.8 L157.8,221.8 L157.9,223.6 C159,222.4 160.3,221.5 161.6,221.5 C163.5,221.5 164.4,222.5 164.8,223.9 C166.2,222.4 167.5,221.5 168.8,221.5 C171.1,221.5 172.3,222.9 172.3,225.9 L172.3,233.4 L171.6,233.4 L171.6,226 C171.6,223.4 170.7,222.2 168.8,222.2 C167.6,222.2 166.5,223 165.1,224.5 L165.1,233.4 L164.4,233.4 L164.4,226 C164.4,223.4 163.5,222.2 161.6,222.2 C160.5,222.2 159.3,223 157.9,224.5 L157.9,233.4 L157.2,233.4 L157.2,221.8 L157.2,221.8 Z M175.2,227.6 C175.2,223.8 177.6,221.5 180.2,221.5 C182.9,221.5 184.6,223.4 184.6,226.9 L184.6,227.7 L176,227.7 C176,230.8 177.8,233.1 180.6,233.1 C181.9,233.1 182.9,232.7 183.8,232 L184.1,232.6 C183.2,233.1 182.3,233.7 180.5,233.7 C177.6,233.7 175.2,231.4 175.2,227.6 L175.2,227.6 Z M183.9,226.9 C183.9,223.7 182.4,222.1 180.3,222.1 C178.2,222.1 176.3,223.9 176.1,226.9 L183.9,226.9 L183.9,226.9 Z M187.6,230.3 L187.6,222.4 L185.8,222.4 L185.8,221.8 L187.6,221.7 L187.7,218.3 L188.3,218.3 L188.3,221.7 L191.8,221.7 L191.8,222.4 L188.3,222.4 L188.3,230.4 C188.3,231.9 188.6,233 190.3,233 C190.7,233 191.4,232.8 191.8,232.6 L192,233.2 C191.3,233.4 190.6,233.6 190.2,233.6 C188.2,233.7 187.6,232.3 187.6,230.3 L187.6,230.3 Z M198.5,221.8 L199.1,221.8 L199.2,223.6 C200.3,222.4 201.6,221.5 202.9,221.5 C204.8,221.5 205.7,222.5 206.1,223.9 C207.5,222.4 208.8,221.5 210.1,221.5 C212.4,221.5 213.6,222.9 213.6,225.9 L213.6,233.4 L212.9,233.4 L212.9,226 C212.9,223.4 212,222.2 210.1,222.2 C208.9,222.2 207.8,223 206.4,224.5 L206.4,233.4 L205.7,233.4 L205.7,226 C205.7,223.4 204.8,222.2 202.9,222.2 C201.8,222.2 200.6,223 199.2,224.5 L199.2,233.4 L198.5,233.4 L198.5,221.8 L198.5,221.8 Z M216.6,227.6 C216.6,223.8 219,221.5 221.6,221.5 C224.3,221.5 226,223.4 226,226.9 L226,227.7 L217.4,227.7 C217.4,230.8 219.2,233.1 222,233.1 C223.3,233.1 224.3,232.7 225.2,232 L225.5,232.6 C224.6,233.1 223.7,233.7 221.9,233.7 C219,233.7 216.6,231.4 216.6,227.6 L216.6,227.6 Z M225.3,226.9 C225.3,223.7 223.8,222.1 221.7,222.1 C219.6,222.1 217.7,223.9 217.5,226.9 L225.3,226.9 L225.3,226.9 Z M227.7,227.6 C227.7,223.8 230.1,221.5 232.7,221.5 C235.4,221.5 237.1,223.4 237.1,226.9 L237.1,227.7 L228.5,227.7 C228.5,230.8 230.3,233.1 233.1,233.1 C234.4,233.1 235.4,232.7 236.3,232 L236.6,232.6 C235.7,233.1 234.8,233.7 233,233.7 C230.1,233.7 227.7,231.4 227.7,227.6 L227.7,227.6 Z M236.4,226.9 C236.4,223.7 234.9,222.1 232.8,222.1 C230.7,222.1 228.8,223.9 228.6,226.9 L236.4,226.9 Z M239.9,221.8 L240.5,221.8 L240.6,224 C241.4,222.6 242.5,221.5 243.9,221.5 C244.3,221.5 244.6,221.5 245,221.7 L244.8,222.4 C244.4,222.3 244.2,222.2 243.8,222.2 C242.7,222.2 241.5,223 240.5,225.3 L240.5,233.4 L239.8,233.4 L239.8,221.8 L239.9,221.8 Z M245.1,221.8 L245.9,221.8 L248.1,229.6 C248.4,230.7 248.7,231.6 248.9,232.7 L249,232.7 C249.3,231.7 249.6,230.7 249.9,229.6 L252.1,221.8 L253.1,221.8 L255.3,229.6 C255.6,230.7 255.9,231.6 256.2,232.7 L256.3,232.7 C256.6,231.7 256.9,230.7 257.2,229.6 L259.4,221.8 L260.2,221.8 L256.8,233.4 L255.8,233.4 L253.6,225.8 L252.7,222.5 L252.6,222.5 C252.3,223.6 252,224.7 251.6,225.9 L249.5,233.4 L248.6,233.4 L245.1,221.8 Z M261.8,230.6 C261.8,228 264.2,226.8 269.4,226.2 C269.4,224.3 269,222.2 266.5,222.2 C264.8,222.2 263.4,223 262.7,223.6 L262.3,223 C263,222.5 264.6,221.5 266.5,221.5 C269.2,221.5 270.1,223.5 270.1,225.9 L270.1,233.4 L269.5,233.4 L269.4,231.8 C268.2,232.8 266.7,233.6 265.2,233.6 C263.3,233.7 261.8,232.8 261.8,230.6 L261.8,230.6 Z M269.4,231 L269.4,226.8 C264.3,227.4 262.5,228.6 262.5,230.5 C262.5,232.3 263.7,233 265.1,233 C266.6,233 267.8,232.3 269.4,231 Z M273.1,230.6 C273.1,228 275.5,226.8 280.7,226.2 C280.7,224.3 280.3,222.2 277.8,222.2 C276.1,222.2 274.7,223 274,223.6 L273.6,223 C274.3,222.5 275.9,221.5 277.8,221.5 C280.5,221.5 281.4,223.5 281.4,225.9 L281.4,233.4 L280.8,233.4 L280.7,231.8 C279.5,232.8 278,233.6 276.5,233.6 C274.6,233.7 273.1,232.8 273.1,230.6 L273.1,230.6 Z M280.7,231 L280.7,226.8 C275.6,227.4 273.8,228.6 273.8,230.5 C273.8,232.3 275,233 276.4,233 C277.9,233 279.2,232.3 280.7,231 Z M285.3,221.8 L285.9,221.8 L286,224 C286.8,222.6 287.9,221.5 289.3,221.5 C289.7,221.5 290,221.5 290.4,221.7 L290.2,222.4 C289.8,222.3 289.6,222.2 289.2,222.2 C288.1,222.2 286.9,223 285.9,225.3 L285.9,233.4 L285.2,233.4 L285.2,221.8 L285.3,221.8 Z M291.2,227.6 C291.2,223.9 293.6,221.5 296.4,221.5 C297.8,221.5 298.8,222 300,223 L300,215.9 L300.7,215.9 L300.7,233.5 L300,233.5 L299.9,231.9 C298.9,232.9 297.6,233.7 296,233.7 C293.1,233.7 291.2,231.6 291.2,227.6 L291.2,227.6 Z M299.9,231 L299.9,223.8 C298.6,222.6 297.5,222.2 296.3,222.2 C293.8,222.2 291.9,224.6 291.9,227.6 C291.9,230.8 293.4,233 296,233 C297.4,233 298.6,232.3 299.9,231 L299.9,231 Z M303.8,227.6 C303.8,223.8 306.2,221.5 308.8,221.5 C311.5,221.5 313.2,223.4 313.2,226.9 L313.2,227.7 L304.6,227.7 C304.6,230.8 306.4,233.1 309.2,233.1 C310.5,233.1 311.5,232.7 312.4,232 L312.7,232.6 C311.8,233.1 310.9,233.7 309.1,233.7 C306.2,233.7 303.8,231.4 303.8,227.6 L303.8,227.6 Z M312.5,226.9 C312.5,223.7 311,222.1 308.9,222.1 C306.8,222.1 304.9,223.9 304.7,226.9 L312.5,226.9 Z" id="Laag_5" fill="#FAFAFA" fill-rule="nonzero"></path>
        </g>
    </g>
</svg>